# xmcd
#
# Track frame offsets: 
#        150
#        23168
#        47471
#        59689
#        78834
#        101131
#        127186
#        143404
#        170384
#        184276
#        211309
#
# Disc length: 3101 seconds
#
# Revision: 0
# Processed by: cddbd v1.5.2PL0 Copyright (c) Steve Scherf et al.
# Submitted via: ExactAudioCopyFreeDBPlugin 1.0
#
DISCID=960c1b0b
DTITLE=Rory Gallagher - Deuce BVCM-37881
DYEAR=1900
DGENRE=Blues
TTITLE0=I'm Not Awake Yet
TTITLE1=Used To Be
TTITLE2=Don't Know Where I'm Going
TTITLE3=Maybe I Will
TTITLE4=Whole Lot Of People
TTITLE5=In Your Town
TTITLE6=Should've Learnt My Lesson
TTITLE7=There's A Light
TTITLE8=Out Of My Mind
TTITLE9=Crest Of A Wave
TTITLE10=Persuasion
EXTD=
EXTT0=
EXTT1=
EXTT2=
EXTT3=
EXTT4=
EXTT5=
EXTT6=
EXTT7=
EXTT8=
EXTT9=
EXTT10=
PLAYORDER=
